<svg xmlns="http://www.w3.org/2000/svg" version="1.2" viewBox="0 0 199 184"><path fill-rule="evenodd" d="m78 23 3.87 11.25c2.13 6.19 8.77 25.31 14.75 42.5 5.99 17.18 11.22 31.24 11.63 31.25.41 0 1.02-1.01 1.35-2.25.33-1.24.76-2.92.96-3.75.19-.83 6.36-18.82 27.05-78.5l22.7-.25c17.76-.2 22.62.02 22.35 1-.19.69-1.77 1.59-3.5 2-1.86.44-3.98 1.99-5.16 3.75-1.95 2.92-2 4.67-2 128l3.5 3.5c1.93 1.93 4.4 3.5 5.5 3.5 1.1 0 2 .45 2 1 0 .64-10.67 1-30 1s-30-.36-30-1c0-.55.67-1 1.5-1s2.74-.61 4.25-1.36c1.51-.75 3.54-3 4.5-5 1.61-3.36 1.73-8.18 1.25-121.01l-21.8 62.93c-12 34.62-22.21 63.62-22.7 64.44-.49.83-1.06 1.28-1.27 1-.21-.27-10.24-29.07-44.23-127.5l-.23 39c-.2 32.58 0 39.25 1.19 40.5.78.83 2.16 3.3 3.07 5.5.91 2.2 1.63 6.48 1.61 9.5-.04 3.76-.8 6.93-2.41 10-1.29 2.48-2.98 4.5-3.76 4.5-.77 0-2.42-1.8-3.66-4-1.24-2.2-2.54-6.02-2.89-8.5-.39-2.75-.11-6.24.72-8.97.75-2.46 2.15-5.5 3.11-6.75 1.61-2.1 1.73-5.55 1.5-43.53-.24-39.5-.34-41.4-2.3-44.75-1.49-2.56-3.17-3.84-6.25-4.75-2.31-.69-4.2-1.7-4.2-2.25 0-.64 8.67-1 48-1zM21.5 132c2.26-.01 6.18 1.04 9 2.42 4.1 2 5.3 3.21 6.69 6.76.93 2.38 2.4 4.88 3.25 5.57.86.69 1.33 1.7 1.06 2.25-.28.55-1.96 1.03-3.75 1.06-2.71.06-2.92.21-1.25.91 1.1.47 4.92 3.82 8.5 7.45 5.09 5.17 7.15 6.61 9.5 6.63 1.71.02 3.62-.73 4.45-1.76.8-.98 1.45-2.69 1.45-3.79s-.65-2.81-1.45-3.79c-.84-1.05-2.71-1.77-4.45-1.73-1.69.03-3.99 1.04-5.26 2.29-1.79 1.76-2.53 1.97-3.5 1-.98-.97-.83-1.67.76-3.36 1.1-1.18 2.9-2.51 4-2.96 1.81-.75 1.77-.83-.5-.86-1.38-.02-2.84-.27-3.25-.56-.41-.29.71-3.3 2.5-6.69 2.77-5.26 3.98-6.51 8.25-8.49 2.75-1.28 6.91-2.33 9.25-2.34 2.43-.01 4.5.52 4.83 1.24.32.69-.09 2.6-.91 4.25-.82 1.65-2.77 4.19-4.33 5.64-1.56 1.45-4.3 3.36-6.09 4.25-1.79.88-4.04 1.64-5 1.69-.96.04-.25.6 1.57 1.25 1.83.64 4.21 2.3 5.3 3.67 1.08 1.38 1.96 3.85 1.96 5.5-.01 1.65-.93 4.24-2.05 5.75-1.71 2.32-2.77 2.75-6.78 2.78-4.52.02-5.12-.32-12.25-6.98-5.38-5.03-8.26-7.02-10.18-7.03-1.47-.01-3.38.66-4.25 1.48-.86.83-1.56 2.51-1.54 3.75.01 1.24.8 3.05 1.75 4.03.94.98 2.84 1.76 4.22 1.73 1.37-.03 3.5-1.06 4.73-2.28 1.54-1.54 2.78-1.99 4-1.46 1.58.69 1.45 1.08-1.23 3.77-2.47 2.47-3.8 2.99-7.5 2.96-3.27-.03-5.12-.65-6.78-2.27-1.61-1.58-2.27-3.39-2.27-6.23 0-2.86.65-4.62 2.27-6.18 1.26-1.19 3.63-2.5 8.28-3.63l-4-1.14c-2.2-.62-5.46-2.13-7.25-3.34-1.79-1.22-4.49-4.28-6-6.81-2.34-3.91-2.53-4.72-1.25-5.48.82-.49 3.3-.9 5.5-.92zm6.84-11c.64.01 2.62.91 4.41 2 2.97 1.83 3.25 2.44 3.25 7 0 2.75-.23 5-.5 5-.28 0-2.19-.87-4.25-1.93-2.25-1.16-4.05-2.96-4.5-4.5-.41-1.41-.48-3.69-.16-5.07.32-1.37 1.11-2.5 1.75-2.5zm31.41.04c.84-.03 1.25 1.6 1.25 4.96 0 4.91-.08 5.04-4.25 6.97-2.34 1.08-4.3 1.87-4.37 1.75-.06-.12-.4-2.36-.75-4.97-.62-4.7-.59-4.77 3.12-6.71 2.06-1.07 4.31-1.97 5-2z" class="fill-current"/></svg>