<svg width="417" height="100" viewBox="0 0 417 100" fill="none" xmlns="http://www.w3.org/2000/svg">
<path d="M114.267 25.9485C113.687 25.0362 112.111 24.8703 111.115 24.8703V23.6261H123.308L140.477 71.8995L155.822 23.6261H168.098L168.181 24.8703C167.185 24.8703 165.527 25.0362 164.946 25.9485C163.121 28.7686 163.619 45.0257 163.619 55.6425C163.619 67.0888 163.121 80.7745 164.946 83.5946C165.527 84.507 167.185 84.6729 168.181 84.6729L168.098 85.9171H152.753V84.6729C153.748 84.6729 155.324 84.507 155.905 83.5946C157.73 80.9404 157.315 67.0058 157.315 55.5595C157.315 47.1822 157.564 34.3259 156.734 28.6857L140.229 80.8575L137.906 85.5853L118.166 30.1787L118.331 54.9789C118.331 66.4252 117.834 80.8575 119.658 83.6776C120.239 84.59 121.898 84.7558 122.893 84.7558L122.81 86H111.115V84.7558C112.111 84.7558 113.687 84.59 114.267 83.6776C116.092 81.0234 115.677 66.3423 115.677 54.896C115.677 44.6109 116.092 28.6857 114.267 25.9485ZM194.804 73.9731C195.136 69.743 194.887 65.1811 194.887 60.868C194.887 60.5362 194.887 60.2044 194.887 59.8726C190.823 66.8399 177.967 67.9182 177.386 76.5444C177.054 80.9404 180.206 83.1799 184.354 83.1799C189.745 83.1799 194.058 79.3645 194.804 73.9731ZM194.722 80.028C191.57 84.507 187.257 86.9953 181.699 86.9953C175.727 86.9953 170.004 83.8435 170.253 76.8762C170.751 65.1811 189.662 66.3423 194.887 56.4719C194.804 49.6705 194.058 41.8738 186.427 41.9567C178.382 41.9567 177.469 49.1729 177.22 55.9743C176.391 57.2184 174.815 57.5502 173.405 57.5502C171.995 57.5502 170.668 56.6378 170.668 55.3107C170.668 45.8551 178.299 39.9661 187.174 39.9661C194.722 39.9661 200.611 44.6109 201.191 52.4906C201.274 54.1495 201.274 55.8913 201.274 57.5502C201.274 61.8633 200.694 79.9451 202.601 82.6822C202.933 83.1799 203.348 83.2628 203.928 83.2628C204.758 83.2628 205.587 83.014 206.5 83.014C206.748 83.014 206.997 83.014 207.246 83.097L206.665 84.4241C203.016 84.8388 198.537 86.9124 194.722 86.9124V80.028ZM206.097 44.1962L206.595 42.8691C210.078 42.5373 214.64 40.7126 218.622 40.7126L218.539 49.8364C220.944 44.7768 225.506 39.9661 231.561 39.8831C237.201 39.8831 241.929 43.4497 242.51 51.4953C242.841 57.4673 242.095 80.4428 243.92 83.7605C244.334 84.507 245.91 84.7558 246.989 84.8388V86H232.059V84.8388C233.137 84.7558 234.713 84.507 235.128 83.7605C236.538 81.1892 236.372 70.8212 236.372 67.4205C236.372 63.771 236.289 56.389 236.206 53.9836C235.957 46.1869 232.225 44.0303 229.239 44.0303C225.506 44.1133 219.866 47.6799 218.456 56.1402L218.373 67.4205C218.29 70.8212 218.207 81.1892 219.534 83.7605C219.949 84.507 221.525 84.7558 222.603 84.8388V86H207.756V84.8388C208.834 84.7558 210.41 84.507 210.825 83.7605C212.152 81.1892 212.069 70.8212 212.069 67.4205C212.069 57.3843 212.318 48.0116 210.742 44.6109C210.41 44.1133 209.996 43.9474 209.415 43.9474C208.42 43.9474 207.092 44.528 206.097 44.1962ZM266.471 43.1179H258.758C258.592 54.3983 258.426 64.6834 258.592 75.9638C258.675 81.1892 260.251 83.7605 262.656 83.7605C264.066 83.7605 265.808 82.9311 267.716 81.1892L268.047 83.4287C265.725 85.7512 262.656 86.9124 259.836 86.9124C256.02 86.9124 252.703 84.7558 252.454 80.2769C251.873 72.8948 252.62 48.5922 251.293 43.7815C250.297 42.8691 247.726 43.2009 245.735 43.1179V41.1273C250.297 41.2102 256.352 37.8925 257.513 30.5105L258.923 30.4275L258.758 40.9614V41.1273H266.554L266.471 43.1179ZM267.9 44.1962L268.398 42.8691C271.881 42.5373 276.443 40.7126 280.425 40.7126L280.259 52.8224C281.669 46.9334 285.318 40.049 292.203 40.049C295.438 40.049 298.507 41.8738 300 44.7768C301.41 47.6799 298.507 50.5 295.935 50.5C295.438 50.5 294.94 50.3341 294.442 50.0852C292.452 46.6016 291.456 43.9474 289.3 43.7815C285.318 43.7815 280.508 51.3294 280.176 63.5222V67.4205C280.093 70.8212 280.01 81.1892 281.337 83.7605C281.752 84.507 283.328 84.7558 284.406 84.8388V86H269.642V84.8388C270.72 84.7558 272.213 84.507 272.628 83.7605C273.955 81.1892 273.872 70.8212 273.872 67.4205C273.872 57.3843 274.121 48.0116 272.545 44.6109C272.213 44.1133 271.799 43.9474 271.218 43.9474C270.223 43.9474 268.896 44.528 267.9 44.1962ZM325.7 73.9731C326.032 69.743 325.783 65.1811 325.783 60.868C325.783 60.5362 325.783 60.2044 325.783 59.8726C321.719 66.8399 308.863 67.9182 308.282 76.5444C307.95 80.9404 311.102 83.1799 315.25 83.1799C320.641 83.1799 324.954 79.3645 325.7 73.9731ZM325.618 80.028C322.466 84.507 318.153 86.9953 312.595 86.9953C306.623 86.9953 300.9 83.8435 301.149 76.8762C301.647 65.1811 320.558 66.3423 325.783 56.4719C325.7 49.6705 324.954 41.8738 317.323 41.9567C309.278 41.9567 308.365 49.1729 308.116 55.9743C307.287 57.2184 305.711 57.5502 304.301 57.5502C302.891 57.5502 301.564 56.6378 301.564 55.3107C301.564 45.8551 309.195 39.9661 318.07 39.9661C325.618 39.9661 331.507 44.6109 332.087 52.4906C332.17 54.1495 332.17 55.8913 332.17 57.5502C332.17 61.8633 331.59 79.9451 333.497 82.6822C333.829 83.1799 334.244 83.2628 334.824 83.2628C335.654 83.2628 336.483 83.014 337.396 83.014C337.644 83.014 337.893 83.014 338.142 83.097L337.561 84.4241C333.912 84.8388 329.433 86.9124 325.618 86.9124V80.028ZM336.993 44.1962L337.491 42.8691C340.974 42.5373 345.536 40.7126 349.518 40.7126L349.435 49.8364C351.84 44.7768 356.402 39.9661 362.457 39.8831C368.097 39.8831 372.825 43.4497 373.406 51.4953C373.737 57.4673 372.991 80.4428 374.816 83.7605C375.23 84.507 376.806 84.7558 377.885 84.8388V86H362.955V84.8388C364.033 84.7558 365.609 84.507 366.024 83.7605C367.434 81.1892 367.268 70.8212 367.268 67.4205C367.268 63.771 367.185 56.389 367.102 53.9836C366.853 46.1869 363.121 44.0303 360.135 44.0303C356.402 44.1133 350.762 47.6799 349.352 56.1402L349.269 67.4205C349.186 70.8212 349.103 81.1892 350.43 83.7605C350.845 84.507 352.421 84.7558 353.499 84.8388V86H338.652V84.8388C339.73 84.7558 341.306 84.507 341.721 83.7605C343.048 81.1892 342.965 70.8212 342.965 67.4205C342.965 57.3843 343.214 48.0116 341.638 44.6109C341.306 44.1133 340.892 43.9474 340.311 43.9474C339.316 43.9474 337.989 44.528 336.993 44.1962ZM404.432 73.9731C404.764 69.743 404.515 65.1811 404.515 60.868C404.515 60.5362 404.515 60.2044 404.515 59.8726C400.451 66.8399 387.595 67.9182 387.014 76.5444C386.682 80.9404 389.834 83.1799 393.982 83.1799C399.373 83.1799 403.686 79.3645 404.432 73.9731ZM404.35 80.028C401.198 84.507 396.885 86.9953 391.327 86.9953C385.355 86.9953 379.632 83.8435 379.881 76.8762C380.379 65.1811 399.29 66.3423 404.515 56.4719C404.432 49.6705 403.686 41.8738 396.055 41.9567C388.01 41.9567 387.097 49.1729 386.848 55.9743C386.019 57.2184 384.443 57.5502 383.033 57.5502C381.623 57.5502 380.296 56.6378 380.296 55.3107C380.296 45.8551 387.927 39.9661 396.802 39.9661C404.35 39.9661 410.239 44.6109 410.819 52.4906C410.902 54.1495 410.902 55.8913 410.902 57.5502C410.902 61.8633 410.322 79.9451 412.229 82.6822C412.561 83.1799 412.976 83.2628 413.556 83.2628C414.386 83.2628 415.215 83.014 416.128 83.014C416.376 83.014 416.625 83.014 416.874 83.097L416.293 84.4241C412.644 84.8388 408.165 86.9124 404.35 86.9124V80.028Z" fill="black"/>
<path fill-rule="evenodd" clip-rule="evenodd" d="M46.2583 10.5365C46.2977 10.5365 46.6132 10.683 46.9624 10.8632C47.3117 11.0435 47.9961 11.5843 48.4862 12.0603C48.9763 12.5363 50.0382 13.6883 50.8466 14.6178C51.655 15.5473 53.3337 17.8288 54.5786 19.6878C55.8236 21.5468 57.5643 24.462 58.4459 26.1661C59.3303 27.8701 60.2598 29.9291 60.5133 30.7431C60.7668 31.5571 61.133 32.2979 61.3273 32.3937C61.5217 32.4866 62.3779 32.1852 63.2286 31.7233C64.0792 31.2614 65.7917 30.4924 67.031 30.0192C68.2704 29.5432 70.5518 28.7687 72.101 28.3011C73.6502 27.8335 76.0894 27.2561 77.523 27.0195C79.6383 26.6702 80.2636 26.6533 80.8411 26.9406C81.3142 27.1716 81.6917 27.7237 81.9593 28.5602C82.179 29.2559 82.6155 31.0952 82.9254 32.6444C83.2352 34.1935 83.6323 36.982 83.807 38.841C83.9816 40.7309 84.0379 43.4011 83.9309 44.8968C83.8239 46.3671 83.5 48.902 83.2127 50.5301C82.9226 52.1581 82.4916 54.248 81.8212 56.8675L82.5958 57.5069C83.0211 57.8562 83.683 58.3153 84.0717 58.5237C84.4576 58.7321 85.3787 59.5856 86.1138 60.4193C86.8518 61.2558 87.8263 62.6332 88.2826 63.4866C88.7361 64.3401 89.3192 65.923 89.5755 67.0074C89.9191 68.4608 90.0064 69.7931 89.9106 72.0774C89.8121 74.4096 89.6177 75.5926 89.1276 76.8657C88.7671 77.7952 88.0404 79.2514 87.5109 80.1048C86.9785 80.9583 86.2124 82.0145 85.8012 82.4596C85.3928 82.9018 84.2971 83.7806 83.3676 84.4115C82.4381 85.0452 81.0438 85.848 80.2693 86.2001C79.4947 86.5521 77.6582 87.0366 76.1851 87.2732C74.712 87.5126 72.8108 87.707 71.9602 87.707C71.1095 87.7098 69.397 87.5211 68.1577 87.2929C66.9184 87.0648 65.4284 86.7465 64.8481 86.5888C64.2679 86.431 63.3807 86.1972 62.8765 86.0677C62.3723 85.9409 60.7584 85.2678 59.2853 84.5749C57.8121 83.8791 55.6574 82.7018 54.497 81.9526C53.3337 81.2033 51.6268 80.0063 50.7001 79.2908C49.7734 78.5782 48.5341 77.5501 46.8751 76.0207L48.2215 74.6772C48.9622 73.9364 49.7903 73.2717 50.0607 73.1984C50.3706 73.1139 51.3085 73.6604 52.5929 74.6828C53.7167 75.5729 55.0152 76.5587 55.48 76.8742C55.9475 77.1868 56.9615 77.8149 57.7361 78.2656C58.5107 78.7162 60.1274 79.5697 61.3273 80.1584C62.5272 80.7499 63.9862 81.3526 64.5665 81.5019C65.1467 81.6484 66.3832 81.9638 67.3127 82.2004C68.2704 82.4455 70.2251 82.6314 71.8193 82.6342C73.7797 82.6342 75.1486 82.4765 76.326 82.1103C77.2555 81.823 78.5652 81.285 79.2384 80.916C79.9115 80.5471 80.996 79.7387 81.6438 79.119C82.2944 78.4994 83.2577 77.1051 83.7873 76.0207C84.6689 74.2096 84.7477 73.8294 84.7618 71.3732C84.7731 69.4326 84.6266 68.2721 84.2351 67.1483C83.9394 66.2948 83.3281 65.0921 82.8803 64.4725C82.4325 63.8528 81.5368 62.9261 80.8861 62.4135C80.2383 61.9037 79.1989 61.2361 78.5793 60.9347C77.9596 60.6306 76.4386 60.1996 75.1993 59.9743C73.96 59.7489 72.5038 59.5574 71.9602 59.549C71.4165 59.5433 69.8336 59.7377 68.4394 59.9799C67.0451 60.2221 64.6369 60.9178 63.0877 61.5262C61.5386 62.1318 59.5106 63.1036 58.5811 63.6838C57.6516 64.264 56.0039 65.4188 54.9195 66.2498C53.835 67.0835 50.8071 69.6832 48.1905 72.0323C45.5738 74.3814 42.1291 77.3164 40.5405 78.5557C38.9491 79.795 36.338 81.5751 34.7354 82.5131C33.1327 83.451 31.1272 84.5129 30.2738 84.8734C29.4204 85.234 28.4711 85.6367 28.1613 85.7691C27.8515 85.9015 26.646 86.2592 25.4855 86.5634C24.3222 86.8704 22.2971 87.2648 20.9789 87.4422C19.6297 87.6225 17.7256 87.6788 16.6131 87.5689C15.5287 87.4619 13.6894 87.1267 12.5289 86.8254C11.3657 86.524 9.65595 85.8705 8.72646 85.372C7.79696 84.8762 6.13514 83.5834 5.03665 82.499C3.63959 81.1245 2.77488 79.9725 2.17775 78.6965C1.70456 77.691 1.11588 76.0742 0.868013 75.1053C0.611699 74.1082 0.420166 72.2154 0.420166 70.7395C0.422983 69.3058 0.591983 67.5004 0.794781 66.7258C1.0004 65.9512 1.62569 64.4302 2.18902 63.3458C2.75798 62.2445 3.92971 60.6418 4.8423 59.718C5.73799 58.8054 7.23363 57.6196 8.16313 57.0816C9.09262 56.5464 9.8841 56.0873 9.92353 56.0648C9.96296 56.0422 9.75453 54.9466 9.45597 53.6284C9.16022 52.3102 8.76026 49.7752 8.56872 47.9951C8.35466 46.0065 8.28988 43.4518 8.40254 41.376C8.50394 39.517 8.83631 36.537 9.14332 34.7568C9.45034 32.9739 9.81087 31.0107 9.94606 30.391C10.0813 29.7714 10.408 28.7574 10.6728 28.1377C10.9403 27.5181 11.3065 26.9181 11.4896 26.8054C11.6755 26.69 12.2698 26.597 12.8106 26.597C13.3514 26.597 14.9372 26.8392 16.3314 27.1322C17.7256 27.4279 20.5789 28.2335 22.6689 28.9207C24.7616 29.608 27.5163 30.6981 28.7951 31.3374C30.0738 31.9796 31.2455 32.4416 31.4005 32.3627C31.5554 32.2838 31.761 31.8106 31.8568 31.3064C31.9525 30.8023 32.713 29.0278 33.5467 27.3631C34.3805 25.6985 35.2931 23.986 35.5719 23.5607C35.8536 23.1354 36.4873 22.1833 36.9802 21.4482C37.476 20.713 37.8787 20.0455 37.8787 19.9694C37.8787 19.8906 38.5632 18.9104 39.3969 17.7865C40.2335 16.6627 41.7939 14.7305 42.8642 13.4912C43.9345 12.2518 45.1203 11.0801 45.4978 10.8886C45.878 10.6999 46.2188 10.5393 46.2583 10.5365ZM43.6106 20.4511C42.5487 21.8003 41.4277 23.248 41.1179 23.6705C40.8081 24.0902 39.8279 25.7746 38.9378 27.4138C38.0477 29.0503 37.245 30.5798 37.152 30.8135C37.0619 31.0445 36.8225 31.6782 36.6225 32.2219C36.4225 32.7627 35.9972 34.0949 35.6733 35.1793C35.3522 36.2637 34.8931 38.3875 34.6537 39.8972C34.4143 41.4069 34.2171 44.0997 34.2171 45.8826C34.2171 48.1584 34.3833 49.8118 34.7804 51.4455C35.0903 52.7242 35.5156 54.3382 35.7268 55.0367C35.9353 55.7324 36.3268 56.8112 36.5944 57.4308C36.8591 58.0505 37.5774 59.5715 38.1858 60.8108C38.797 62.0501 39.4532 63.2557 39.642 63.4866C39.8335 63.7176 40.7207 64.5119 41.6108 65.247C42.5009 65.9822 43.2276 66.7427 43.2276 66.937C43.2247 67.1314 42.5093 67.9229 41.639 68.6974C40.1321 70.0353 40.0194 70.0832 39.4138 69.6833C39.0617 69.4523 37.8449 68.5031 36.707 67.5764C35.5691 66.6497 33.8143 65.3287 32.8088 64.6415C31.8032 63.9514 29.7105 62.7909 28.1613 62.0586C26.6122 61.3263 24.5194 60.5123 23.5138 60.2503C22.5083 59.9884 20.3536 59.7039 18.7256 59.6166C16.2018 59.487 15.4892 59.5518 13.8668 60.0672C12.8219 60.3996 11.3628 61.0277 10.6277 61.4615C9.89255 61.898 8.68984 63.0078 7.9547 63.926C7.0421 65.0696 6.47596 66.1343 6.16049 67.2891C5.83376 68.4918 5.73799 69.7114 5.82813 71.5141C5.93234 73.6125 6.10698 74.3758 6.84775 75.9503C7.33785 76.9953 8.29269 78.4543 8.97151 79.1894C9.70383 79.9894 10.8671 80.8372 11.8586 81.2935C12.7683 81.716 14.5287 82.2173 15.7681 82.406C17.5651 82.6821 18.6185 82.6793 20.9789 82.3891C22.6097 82.192 24.9475 81.6737 26.1897 81.2371C27.429 80.8034 29.2711 80.0203 30.2822 79.5021C31.2934 78.981 33.3834 77.7079 34.9297 76.6713C36.4732 75.6376 38.366 74.2434 39.1322 73.573C39.8983 72.9055 41.9263 71.0916 43.6388 69.5424C45.3513 67.9933 47.6384 65.954 48.7228 65.0133C49.8072 64.0725 51.4437 62.743 52.3619 62.0558C53.7759 60.9995 54.1759 60.4897 54.9955 58.6983C55.5278 57.5351 56.3362 55.3803 56.7925 53.91C57.2488 52.4369 57.7671 49.9667 57.9445 48.4176C58.1868 46.2966 58.1868 44.7306 57.9417 42.0801C57.7239 39.7329 57.3277 37.6204 56.7531 35.7427C56.2799 34.1935 55.4997 31.974 55.0209 30.8135C54.5392 29.6503 53.6351 27.8138 53.0041 26.7294C52.376 25.645 51.3451 24.0142 50.7142 23.1044C50.0833 22.1946 49.2045 20.9271 48.7623 20.2877C48.3201 19.6483 47.6243 18.7724 47.2131 18.3442C46.8047 17.9133 46.4075 17.5668 46.3287 17.5725C46.2498 17.5781 46.0414 17.6767 45.8639 17.7922C45.6865 17.9048 44.6725 19.1019 43.6106 20.4511ZM73.9318 32.9119C72.4587 33.3175 70.304 34.0414 69.1435 34.5202C67.9802 34.9963 66.1438 35.8243 65.0594 36.3567C63.975 36.8919 63.0004 37.4129 62.8934 37.52C62.7864 37.627 62.8821 38.6635 63.1046 39.8268C63.3271 40.9873 63.5102 43.2068 63.5102 44.7559C63.5074 46.4065 63.2736 48.7978 62.9413 50.5301C62.6314 52.1553 62.2596 53.803 62.116 54.1917C61.9723 54.5776 61.7864 55.2761 61.6991 55.7409L61.5442 56.5859C67.5972 54.986 68.2844 54.9128 72.515 54.9043L77.1569 54.8959C77.9033 52.0595 78.2779 50.0935 78.4723 48.6992C78.6638 47.305 78.8159 44.263 78.8074 41.9393C78.799 39.2269 78.6272 36.8581 78.3286 35.3202C78.0723 34.002 77.8019 32.7035 77.7287 32.4331C77.6554 32.1627 77.4977 31.9515 77.3822 31.9627C77.2667 31.974 77.0442 32.0275 76.8893 32.0782C76.7344 32.1317 75.4049 32.5063 73.9318 32.9119ZM14.309 35.0385C13.9035 36.9651 13.8105 38.6438 13.8415 43.6293C13.8725 48.564 13.9851 50.285 14.402 52.0792L14.9231 54.3325C19.5086 54.6029 21.5337 54.8114 22.3872 54.9691C23.2406 55.1296 24.7616 55.5127 25.7672 55.8197C26.7727 56.1295 28.4233 56.7182 29.4288 57.1295C30.4343 57.5407 31.3216 57.8055 31.4005 57.7153C31.4793 57.628 31.2399 56.6394 30.8737 55.5212C30.5076 54.4029 30.1048 53.1693 29.9837 52.7834C29.8598 52.3947 29.6091 51.1272 29.426 49.9667C29.2147 48.6429 29.1528 46.5389 29.257 44.3334C29.3499 42.3956 29.4908 40.0831 29.5696 39.1931L29.7105 37.5735C25.2348 35.3681 22.8604 34.3597 21.5422 33.9118C20.2268 33.4612 18.3256 32.8979 17.3172 32.6613C16.3089 32.4247 15.3963 32.2275 15.2892 32.2247C15.1794 32.2247 15.0301 32.3176 14.9512 32.4331C14.8752 32.5486 14.5879 33.7203 14.309 35.0385Z" fill="black" stroke="white" stroke-width="0.84"/>
<path d="M43.6451 46.0241L41.3975 48.2774C44.8901 51.7728 45.9689 52.7896 46.0449 52.7896C46.1238 52.7925 47.1744 51.8714 48.3799 50.7448C49.5883 49.6209 50.5713 48.5083 50.5656 48.2774C50.56 48.0464 49.6362 46.9367 48.5123 45.8156C47.3885 44.6918 46.3379 43.7736 46.1801 43.7736C46.0196 43.7707 44.8788 44.7847 43.6451 46.0241Z" fill="black" stroke="white" stroke-width="0.84"/>
</svg>
