<svg width="365" height="525" viewBox="0 0 365 525" fill="none" xmlns="http://www.w3.org/2000/svg">
<path d="M296.5 173.5C282.1 173.1 264.5 138 257.5 120.5L162 167C164.833 208.167 176.2 291.5 199 295.5C293 313.5 371.5 234.5 364 209C356.5 183.5 314.5 174 296.5 173.5Z" fill="#22004E"/>
<circle cx="254.36" cy="200.36" r="3.36" fill="#81B5AC"/>
<path d="M206 200.5C212.8 213.7 214 222.5 196 227.5C199.333 235.333 215.1 253.3 241.5 246.5C267.9 239.7 288.167 194 286 181C275.5 184.5 258 206.5 258 206.5C255.667 201.167 244.9 184.5 234.5 176.5C221.5 166.5 197.5 184 206 200.5Z" fill="#D46257"/>
<mask id="mask0_2198_95" style="mask-type:alpha" maskUnits="userSpaceOnUse" x="196" y="173" width="91" height="76">
<path d="M206 200.5C212.8 213.7 214 222.5 196 227.5C199.333 235.333 215.1 253.3 241.5 246.5C267.9 239.7 288.167 194 286 181C275.5 184.5 258 206.5 258 206.5C255.667 201.167 244.9 184.5 234.5 176.5C221.5 166.5 197.5 184 206 200.5Z" fill="#D46257"/>
</mask>
<g mask="url(#mask0_2198_95)">
<path opacity="0.7" d="M260.107 77.8914C274.325 143.028 244.41 190.939 220.208 208.842C169.074 210.264 132.846 164.332 114.48 128.541C142.397 113.985 166.221 77.9758 168.104 57.0605C186.091 74.744 213.351 84.2257 260.107 77.8914Z" fill="#D04F42"/>
</g>
<path d="M14 201.5C33 228.5 64.1666 258.833 83.5 271.5C86.6666 266.833 95 253.3 103 236.5C88.2 230.5 52.5 199.667 36.5 185C34 178 34 174.5 30 175C27 176.5 29 182.167 30 185.5C27.5 183 22.5 176.9 20.5 174.5C18 171.5 16.8089 169.615 14.5 171C12 172.5 14.5 174.5 15.5 178C13 176 12 173 9 174.5C5.99998 176 9.99998 179 10.5 181C8.99998 179.5 6.99998 176.5 4.99998 178C3.39998 179.2 4.99998 181.5 5.99998 183.5C3.49998 182 2.5 181 0.999988 182.5C-0.897388 184.397 2.00001 187 4 189C6.16666 191.5 9.99999 197.9 14 201.5Z" fill="#F68C76"/>
<path d="M111 224C158.6 250 184.833 237.5 192 228.5C195.5 244.333 204.4 280.3 212 309.5C152 338.7 94.3333 301.333 73 277C81.5 266.167 101 240.4 111 224Z" fill="#AEC4C0"/>
<path d="M111 224C158.6 250 184.833 237.5 192 228.5C195.5 244.333 204.4 280.3 212 309.5C152 338.7 94.3333 301.333 73 277C81.5 266.167 101 240.4 111 224Z" fill="white" fill-opacity="0.5"/>
<path d="M111 224C158.6 250 184.833 237.5 192 228.5C195.5 244.333 213.618 268.3 221.218 297.5C161.218 326.7 96.8333 298.833 75.5 274.5C84 263.667 101 240.4 111 224Z" fill="#AEC4C0"/>
<path d="M111 224C158.6 250 184.833 237.5 192 228.5C195.5 244.333 213.618 268.3 221.218 297.5C161.218 326.7 96.8333 298.833 75.5 274.5C84 263.667 101 240.4 111 224Z" fill="white" fill-opacity="0.8"/>
<path opacity="0.2" d="M192 229C182 234.6 193 284 199.5 307L208.5 305C207.333 278 202 223.4 192 229Z" fill="#D7E1DF"/>
<path d="M190.5 230.5C200.5 380.9 310.667 489.167 364.5 524.5C364.333 459.333 364 320.5 364 286.5C347.5 279 315 224.5 315 175.5C284 173.5 268.5 192.333 265 198.5C267.667 207.167 267.9 227.8 247.5 241C227.1 254.2 208.333 238.167 201.5 228.5C197.833 226.333 193.5 226.5 190.5 230.5Z" fill="white"/>
<path d="M363.971 306.727C363.964 332.11 363.967 354.282 364 371.5C363.881 324.832 363.932 318.85 363.971 306.727C363.973 300.184 363.975 293.429 363.978 286.49C347.471 278.951 315 224.478 315 175.5C332 171 367.5 200.333 364 206.5C364 234.598 363.987 261.714 363.978 286.49C363.985 286.493 363.993 286.497 364 286.5C364 296.151 363.987 301.921 363.971 306.727Z" fill="white"/>
<path opacity="0.5" d="M260.5 230C265.5 294 310.167 365.667 364 401C363.834 335.833 364 307.5 364 273.5C347.5 266 305 224.5 305 175.5C275.5 178 270 215.5 260.5 230Z" fill="#AEC4C0"/>
<path d="M258 205.5C263 269.5 310.167 336.167 364 371.5C363.834 306.333 364 307.5 364 273.5C347.5 266 305 224.5 305 175.5C275.5 178 267.5 191 258 205.5Z" fill="#AEC4C0"/>
<path d="M31.0004 220.5C24.7247 221.755 22.6667 216.333 23.5 214L25.5004 216C38.7004 214 48.0004 203.167 51.0004 198L49.0004 196C53.0004 196 54.0004 196.972 54.0004 201.5C54.0004 205 46.5 217.4 31.0004 220.5Z" fill="white"/>
<circle cx="43" cy="211" r="9" fill="#22004E"/>
<ellipse cx="135.243" cy="158.822" rx="7.98538" ry="10.9429" transform="rotate(-41.7177 135.243 158.822)" fill="#D46257"/>
<ellipse cx="259.5" cy="102.5" rx="13.5" ry="18.5" transform="rotate(-5.52697 259.5 102.5)" fill="#D46257"/>
<circle cx="265" cy="120" r="3.6" fill="white"/>
<circle cx="141" cy="169" r="3.6" fill="white"/>
<path d="M256.107 72.8914C272 155 240.41 185.939 216.208 203.842C165.074 205.264 128.846 159.332 110.48 123.541C138.397 108.985 162.221 72.9758 164.104 52.0605C182.091 69.744 209.351 79.2257 256.107 72.8914Z" fill="#F68C76"/>
<mask id="mask1_2198_95" style="mask-type:alpha" maskUnits="userSpaceOnUse" x="110" y="52" width="150" height="152">
<path d="M256.107 72.8914C270.325 138.028 240.41 185.939 216.208 203.842C165.074 205.264 128.846 159.332 110.48 123.541C138.397 108.985 162.221 72.9758 164.104 52.0605C182.091 69.744 209.351 79.2257 256.107 72.8914Z" fill="#F68C76"/>
</mask>
<g mask="url(#mask1_2198_95)">
<path d="M176.5 154.5C184.9 121.7 168.333 73.5 159 53.5C138.667 71 98.7 112.5 101.5 138.5C105 171 218 234 218 206C218 183.6 204 158 197 148C193.5 154.5 181 157 176.5 154.5Z" fill="#D56358"/>
</g>
<path d="M162.014 56.0565C180.001 73.74 219.629 82.1588 257.69 72.0299C245.734 15.2295 192.5 -7.16746 144.5 19.5C89.5 50.0565 85 86.5 107.5 126.5C140.94 111.939 159.997 78.4659 162.014 56.0565Z" fill="#22004E"/>
<path d="M216.5 154C203 167 193.333 167 187.5 167C193 179 204.5 178.423 209.5 176.5C216 174 221.5 165.5 216.5 154Z" fill="#22004E"/>
<path d="M190.5 121C194.5 109.5 208 94.7 236 99.5C243 120 205 135.5 190.5 121Z" fill="#D56358"/>
<path d="M190.5 121C194.5 109.5 208 94.7 236 99.5C236 122 196.5 128.5 190.5 121Z" fill="#22004E"/>
<path d="M187.5 120C191.5 108.5 208 94.7 236 99.5C231 122 198 125 187.5 120Z" fill="white"/>
<path d="M236 99.5C208 94.7 191.5 108.5 187.5 120C192.5 101.5 216 96.8704 218.5 96.5C232 94.5 234.5 99.2589 238.5 96.4999C238.5 98.5 238 99.8428 236 99.5Z" fill="#22004E"/>
<mask id="mask2_2198_95" style="mask-type:alpha" maskUnits="userSpaceOnUse" x="187" y="98" width="49" height="25">
<path d="M187.5 120C191.5 108.5 208 94.7 236 99.5C231 122 198 125 187.5 120Z" fill="#D9D9D9"/>
</mask>
<g mask="url(#mask2_2198_95)">
<circle cx="206.5" cy="118.5" r="10.5" fill="#22004E"/>
</g>
<path d="M164.214 130.19C153.236 124.923 133.222 124.071 116.894 147.318C126.505 166.732 164.282 150.696 164.214 130.19Z" fill="#D56358"/>
<path d="M164.214 130.19C153.236 124.923 133.222 124.071 116.894 147.318C132.857 163.175 165.306 139.733 164.214 130.19Z" fill="#22004E"/>
<path d="M165.619 127.357C154.641 122.09 133.222 124.071 116.894 147.318C136.381 159.628 161.766 138.33 165.619 127.357Z" fill="white"/>
<path d="M116.894 147.318C133.222 124.071 154.641 122.09 165.619 127.357C148.97 117.866 129.124 131.276 127.099 132.788C116.166 140.957 117.78 146.084 113.004 146.978C114.423 148.387 115.728 148.979 116.894 147.318Z" fill="#22004E"/>
<mask id="mask3_2198_95" style="mask-type:alpha" maskUnits="userSpaceOnUse" x="116" y="124" width="50" height="28">
<path d="M165.619 127.357C154.641 122.09 133.222 124.071 116.894 147.318C136.381 159.628 161.766 138.33 165.619 127.357Z" fill="#D9D9D9"/>
</mask>
<g mask="url(#mask3_2198_95)">
<circle cx="10.5" cy="10.5" r="10.5" transform="matrix(-0.704751 0.709454 0.709454 0.704751 136.115 131.93)" fill="#22004E"/>
</g>
<path d="M186 98C190.833 93.1667 205.2 84.1 224 86.5" stroke="#22004E" stroke-width="4"/>
<path d="M116.608 127.572C120.99 122.326 134.488 112.011 153.428 112.721" stroke="#22004E" stroke-width="4"/>
<circle opacity="0.5" cx="171.5" cy="90.5" r="2.25" fill="white"/>
<circle cx="171.5" cy="90.5" r="3.24" fill="#AE1E10"/>
<path d="M39.84 211.94L44.16 212.66V208.34" stroke="#F2AEC9" stroke-opacity="0.5" stroke-width="3.6" stroke-linecap="round"/>
<path d="M200 226.5C204.5 243.833 220.789 279.5 250 279.5C281 279.5 272.833 224.833 266 197" stroke="#AEC4C0" stroke-width="2" stroke-linecap="round"/>
<circle cx="201.07" cy="229.57" r="3.36" fill="#81B5AC"/>
<circle cx="203.47" cy="235.97" r="3.36" fill="#81B5AC"/>
<circle cx="205.87" cy="242.37" r="3.36" fill="#81B5AC"/>
<circle cx="209.07" cy="248.77" r="3.36" fill="#81B5AC"/>
<circle cx="212.63" cy="255.13" r="3.36" fill="#81B5AC"/>
<circle cx="216.36" cy="261.36" r="3.36" fill="#81B5AC"/>
<circle cx="221.36" cy="266.36" r="3.36" fill="#81B5AC"/>
<circle cx="226.36" cy="271.36" r="3.36" fill="#81B5AC"/>
<circle cx="232.36" cy="275.36" r="3.36" fill="#81B5AC"/>
<circle cx="238.86" cy="278.36" r="3.36" fill="#81B5AC"/>
<circle cx="245.66" cy="279.36" r="3.36" fill="#81B5AC"/>
<circle cx="252.46" cy="280.36" r="3.36" fill="#81B5AC"/>
<circle cx="259.36" cy="278.36" r="3.36" fill="#81B5AC"/>
<circle cx="264.36" cy="273.36" r="3.36" fill="#81B5AC"/>
<circle cx="268.36" cy="267.36" r="3.36" fill="#81B5AC"/>
<circle cx="271.36" cy="261.36" r="3.36" fill="#81B5AC"/>
<circle cx="272.36" cy="254.36" r="3.36" fill="#81B5AC"/>
<circle cx="273.36" cy="247.36" r="3.36" fill="#81B5AC"/>
<circle cx="273.36" cy="240.36" r="3.36" fill="#81B5AC"/>
<circle cx="272.36" cy="233.36" r="3.36" fill="#81B5AC"/>
<circle cx="271.36" cy="226.36" r="3.36" fill="#81B5AC"/>
<circle cx="270.36" cy="219.36" r="3.36" fill="#81B5AC"/>
<circle cx="268.36" cy="213.36" r="3.36" fill="#81B5AC"/>
<circle cx="264.36" cy="208.36" r="3.36" fill="#81B5AC"/>
<circle cx="260.36" cy="203.36" r="3.36" fill="#81B5AC"/>
</svg>
